<?xml version="1.0" standalone="no"?>
<!DOCTYPE svg PUBLIC "-//W3C//DTD SVG 1.1//EN" "http://www.w3.org/Graphics/SVG/1.1/DTD/svg11.dtd" >
<svg xmlns="http://www.w3.org/2000/svg" xmlns:xlink="http://www.w3.org/1999/xlink" version="1.1">
<metadata>
Created by FontForge 20150318 at Sun Jul 26 02:03:18 2015
 By uniteet7
claudeserieux@gmail.com
</metadata>
<defs>
<font id="Whitin-CondensedBlack" horiz-adv-x="459" >
  <font-face 
    font-family="Whitin"
    font-weight="900"
    font-stretch="condensed"
    units-per-em="1000"
    panose-1="2 0 10 3 0 0 0 0 0 0"
    ascent="800"
    descent="-200"
    x-height="462"
    cap-height="636"
    bbox="-5 -176 874 838"
    underline-thickness="50"
    underline-position="-100"
    stemh="60"
    stemv="182"
    unicode-range="U+0020-02DC"
  />
<missing-glyph horiz-adv-x="500" 
d="M50 0v533h400v-533h-400zM100 50h300v433h-300v-433z" />
    <glyph glyph-name=".notdef" horiz-adv-x="500" 
d="M50 0v533h400v-533h-400zM100 50h300v433h-300v-433z" />
    <glyph glyph-name="space" unicode=" " horiz-adv-x="231" 
 />
    <glyph glyph-name="exclam" unicode="!" horiz-adv-x="239" 
d="M33 553c0 46 39 83 87 83s87 -37 87 -83c0 -30 -67 -339 -67 -339h-40s-67 309 -67 339zM33 67c0 46 39 83 87 83s87 -37 87 -83s-39 -83 -87 -83s-87 37 -87 83z" />
    <glyph glyph-name="quotedbl" unicode="&#x22;" horiz-adv-x="281" 
d="M78 636c29 0 46 -25 46 -60c0 -24 -23 -128 -35 -210h-22c-12 82 -35 186 -35 210c0 35 17 60 46 60zM203 636c29 0 46 -25 46 -60c0 -24 -23 -128 -35 -210h-22c-12 82 -35 186 -35 210c0 35 17 60 46 60z" />
    <glyph glyph-name="numbersign" unicode="#" horiz-adv-x="531" 
d="M237 586h77l-51 -142h80l51 142h77l-50 -142h94l-23 -65h-94l-30 -84h94l-23 -65h-94l-51 -142h-77l51 142h-81l-51 -142h-76l50 142h-94l23 65h94l31 84h-94l22 65h94zM210 295h81l30 84h-81z" />
    <glyph glyph-name="dollar" unicode="$" horiz-adv-x="496" 
d="M239 651h58l-2 -31c82 -12 152 -55 152 -117c0 -28 -21 -57 -52 -57c-27 0 -53 25 -53 54c0 17 8 28 18 38c-19 15 -40 29 -67 35l-9 -174c91 -26 192 -60 192 -205c0 -110 -90 -197 -212 -207l-5 -96h-58l5 97c-89 10 -185 57 -185 142c0 36 24 70 60 70
c33 0 58 -30 58 -63c0 -21 -12 -37 -28 -50c10 -22 53 -43 97 -50l10 203c-88 28 -183 62 -183 189c0 114 91 189 203 194zM275 220l-9 -182c48 8 95 35 95 87c0 51 -37 76 -86 95zM227 416l8 159c-50 -5 -95 -24 -95 -68c0 -52 37 -74 87 -91z" />
    <glyph glyph-name="percent" unicode="%" horiz-adv-x="602" 
d="M153 620c74 0 119 -74 119 -158s-45 -158 -119 -158c-75 0 -119 74 -119 158s45 158 119 158zM153 594c-27 0 -30 -26 -30 -132s3 -132 30 -132s30 26 30 132s-3 132 -30 132zM458 304c74 0 119 -74 119 -158s-45 -158 -119 -158c-75 0 -119 74 -119 158s45 158 119 158z
M458 278c-27 0 -30 -26 -30 -132s3 -132 30 -132s30 26 30 132s-3 132 -30 132zM35 -11l475 631h68l-477 -631h-66z" />
    <glyph glyph-name="ampersand" unicode="&#x26;" horiz-adv-x="700" 
d="M677 380v-50h-19c-27 0 -42 -20 -56 -47c-24 -47 -52 -91 -83 -131c27 -29 52 -47 70 -47c26 0 48 18 61 38l30 -18c-24 -66 -75 -137 -159 -137c-37 0 -74 22 -111 56c-57 -42 -122 -67 -191 -67c-110 0 -196 95 -196 186c0 113 90 163 185 202c-22 55 -35 101 -35 125
c0 93 91 146 184 146c71 0 152 -41 152 -112c0 -80 -65 -114 -138 -140c31 -66 74 -137 115 -191c34 44 57 87 57 110c0 16 -13 30 -33 30h-21v50zM353 424c44 22 75 50 75 106c0 37 -26 65 -57 65c-32 0 -47 -30 -47 -62c0 -26 11 -65 29 -109zM225 327
c-32 -20 -54 -47 -54 -88c0 -88 50 -179 138 -179c19 0 41 9 63 23c-58 68 -110 162 -147 244z" />
    <glyph glyph-name="quotesingle" unicode="'" horiz-adv-x="227" 
d="M122 470c-52 0 -91 37 -91 83s39 83 87 83c65 0 91 -50 91 -115c0 -97 -85 -174 -153 -203l-25 47c63 25 90 64 91 105z" />
    <glyph glyph-name="parenleft" unicode="(" horiz-adv-x="295" 
d="M269 649c-83 -94 -158 -162 -158 -341s75 -250 158 -344l-61 -51c-139 126 -193 251 -193 396c0 142 54 266 193 391z" />
    <glyph glyph-name="parenright" unicode=")" horiz-adv-x="295" 
d="M26 649l61 51c139 -125 193 -249 193 -391c0 -145 -54 -270 -193 -396l-61 51c83 94 158 165 158 344s-75 247 -158 341z" />
    <glyph glyph-name="asterisk" unicode="*" horiz-adv-x="320" 
d="M17 536c0 18 20 43 34 43c5 0 11 -2 18 -6c16 -9 47 -49 81 -75c-5 43 -25 89 -25 107c0 23 12 31 35 31s35 -8 35 -31c0 -18 -20 -64 -25 -107c34 26 65 66 81 75c7 4 13 6 18 6c14 0 34 -25 34 -43c0 -9 -5 -17 -17 -24c-16 -9 -65 -15 -105 -32c40 -17 89 -23 105 -32
c12 -7 17 -15 17 -24c0 -18 -20 -43 -34 -43c-5 0 -11 2 -18 6c-16 9 -47 49 -81 75c5 -43 25 -89 25 -107c0 -23 -12 -31 -35 -31s-35 8 -35 31c0 18 20 64 25 107c-34 -26 -65 -66 -81 -75c-7 -4 -13 -6 -18 -6c-14 0 -34 25 -34 43c0 9 5 17 17 24c16 9 65 15 105 32
c-40 17 -89 23 -105 32c-12 7 -17 15 -17 24z" />
    <glyph glyph-name="plus" unicode="+" horiz-adv-x="479" 
d="M182 456h117v-170h170v-118h-170v-168h-117v168h-171v118h171v170z" />
    <glyph glyph-name="comma" unicode="," horiz-adv-x="228" 
d="M122 -16c-52 0 -91 37 -91 83s39 83 87 83c65 0 91 -50 91 -115c0 -97 -85 -174 -153 -203l-25 47c63 25 90 64 91 105z" />
    <glyph glyph-name="hyphen" unicode="-" horiz-adv-x="283" 
d="M41 306h202v-129h-202v129z" />
    <glyph glyph-name="period" unicode="." horiz-adv-x="230" 
d="M28 67c0 46 39 83 87 83s87 -37 87 -83s-39 -83 -87 -83s-87 37 -87 83z" />
    <glyph glyph-name="slash" unicode="/" horiz-adv-x="310" 
d="M5 -10l258 755h76l-258 -755h-76z" />
    <glyph glyph-name="zero" unicode="0" horiz-adv-x="534" 
d="M267 620c149 0 238 -147 238 -316s-89 -316 -238 -316c-150 0 -238 147 -238 316s89 316 238 316zM267 569c-54 0 -60 -54 -60 -265s6 -265 60 -265s60 54 60 265s-6 265 -60 265z" />
    <glyph glyph-name="one" unicode="1" horiz-adv-x="362" 
d="M265 60h76v-60h-313v60h76v472h-75v53l236 38v-563z" />
    <glyph glyph-name="two" unicode="2" horiz-adv-x="516" 
d="M81 0h-52c27 115 93 182 148 238c64 65 122 120 122 233c0 59 -40 100 -86 100c-31 0 -52 -21 -64 -41c28 -9 48 -42 48 -78c0 -43 -33 -79 -76 -79c-49 0 -82 46 -82 95c0 89 111 153 219 153c135 0 219 -73 219 -180c0 -101 -75 -132 -158 -175
c-53 -28 -113 -64 -154 -122c33 14 54 23 88 23c53 0 81 -22 134 -22c34 0 51 23 58 65l41 -6c-2 -102 -52 -216 -155 -216c-76 0 -129 62 -189 62c-32 0 -57 -23 -61 -50z" />
    <glyph glyph-name="three" unicode="3" horiz-adv-x="507" 
d="M257 618c100 0 208 -54 208 -154c0 -101 -112 -138 -209 -152c126 -16 222 -63 222 -174c0 -113 -123 -150 -253 -150c-93 0 -196 41 -196 134c0 41 36 73 77 73c43 0 77 -35 77 -78c0 -25 -12 -40 -25 -55c10 -15 32 -27 55 -27c54 0 85 59 85 113
c0 121 -67 137 -164 137v48c111 0 161 50 161 136c0 45 -31 102 -76 102c-23 0 -34 -7 -47 -18c12 -19 21 -39 21 -62c0 -41 -30 -73 -71 -73s-75 34 -75 75c0 97 113 125 210 125z" />
    <glyph glyph-name="four" unicode="4" horiz-adv-x="509" 
d="M229 183v257l-164 -257h164zM229 124h-219v64l277 432h101l6 -437h94v-59h-98v-64h50v-60h-261v60h50v64z" />
    <glyph glyph-name="five" unicode="5" horiz-adv-x="515" 
d="M457 620c-23 -93 -88 -170 -200 -170c-47 0 -80 11 -127 18l-16 -123c42 18 104 34 149 34c135 0 223 -81 223 -197c0 -120 -108 -194 -239 -194c-101 0 -219 40 -219 141c0 44 37 79 81 79c45 0 78 -38 78 -83c0 -25 -18 -38 -28 -61c11 -14 27 -28 56 -28
c66 0 89 78 89 144c0 82 -32 131 -95 131c-50 0 -87 -17 -121 -33l-25 8l39 334c66 -21 114 -33 187 -33c53 0 95 13 122 37z" />
    <glyph glyph-name="six" unicode="6" horiz-adv-x="527" 
d="M208 167c0 -71 15 -130 55 -130s55 30 55 130s-15 130 -55 130s-55 -30 -55 -130zM392 418c-44 0 -78 36 -78 80c0 26 9 46 22 64c0 0 -14 11 -35 11c-66 0 -92 -78 -92 -202c0 -16 2 -48 2 -48c35 25 66 43 111 43c100 0 176 -85 176 -185c0 -115 -107 -193 -222 -193
c-177 0 -248 152 -248 305c0 213 124 327 296 327c74 0 144 -47 144 -121c0 -45 -31 -81 -76 -81z" />
    <glyph glyph-name="seven" unicode="7" horiz-adv-x="470" 
d="M470 591c-45 -83 -81 -132 -111 -226c-29 -91 -43 -143 -43 -247c0 -69 -35 -130 -103 -130c-59 0 -96 35 -96 86c0 76 48 141 105 213c43 54 92 114 129 183c0 0 -44 -22 -84 -22c-47 0 -73 26 -120 26c-55 0 -78 -56 -80 -119h-40l4 265h50v-59c35 29 69 59 120 59
c66 0 103 -54 173 -54c28 0 54 25 71 48z" />
    <glyph glyph-name="eight" unicode="8" horiz-adv-x="533" 
d="M342 381c31 28 54 60 54 105c0 58 -60 86 -118 86c-55 0 -120 -13 -120 -68c0 -82 94 -94 184 -123zM174 258c-31 -29 -56 -61 -56 -109c0 -69 61 -110 150 -110c55 0 126 24 126 79c0 88 -123 98 -220 140zM130 281c-47 30 -82 74 -82 150c0 117 107 189 224 189
c94 0 204 -43 204 -137c0 -53 -47 -88 -89 -118c64 -28 117 -74 117 -175c0 -124 -74 -202 -240 -202c-110 0 -234 44 -234 154c0 67 53 105 100 139z" />
    <glyph glyph-name="nine" unicode="9" horiz-adv-x="527" 
d="M319 441c0 71 -15 130 -55 130s-55 -30 -55 -130s15 -130 55 -130s55 30 55 130zM135 190c44 0 78 -36 78 -80c0 -26 -9 -46 -22 -64c0 0 14 -11 35 -11c66 0 92 78 92 202c0 16 -2 48 -2 48c-35 -25 -66 -43 -111 -43c-100 0 -176 85 -176 185c0 115 107 193 222 193
c177 0 248 -152 248 -305c0 -213 -124 -327 -296 -327c-74 0 -144 47 -144 121c0 45 31 81 76 81z" />
    <glyph glyph-name="colon" unicode=":" horiz-adv-x="235" 
d="M30 67c0 46 39 83 87 83s87 -37 87 -83s-39 -83 -87 -83s-87 37 -87 83zM30 335c0 46 39 83 87 83s87 -37 87 -83s-39 -83 -87 -83s-87 37 -87 83z" />
    <glyph glyph-name="semicolon" unicode=";" horiz-adv-x="229" 
d="M121 -16c-52 0 -91 37 -91 83s39 83 87 83c65 0 91 -50 91 -115c0 -97 -85 -174 -153 -203l-25 47c63 25 90 64 91 105zM30 335c0 46 39 83 87 83s87 -37 87 -83s-39 -83 -87 -83s-87 37 -87 83z" />
    <glyph glyph-name="less" unicode="&#x3c;" horiz-adv-x="416" 
d="M5 375l372 138v-99l-239 -85l239 -85v-99l-372 139v91z" />
    <glyph glyph-name="equal" unicode="=" horiz-adv-x="534" 
d="M493 433v-97h-452v97h452zM493 272v-98h-452v98h452z" />
    <glyph glyph-name="greater" unicode="&#x3e;" horiz-adv-x="417" 
d="M412 284l-371 -139v99l238 85l-238 85v99l371 -138v-91z" />
    <glyph glyph-name="question" unicode="?" horiz-adv-x="335" 
d="M254 244c-17 -17 -40 -33 -68 -33c-48 0 -78 43 -78 91c0 85 46 127 46 212c0 24 -9 51 -35 51c-29 0 -43 -20 -62 -55l-41 18c20 46 71 108 166 108c71 0 130 -57 130 -128c0 -100 -135 -160 -135 -220c0 -15 12 -28 27 -28c14 0 22 5 32 17zM88 67c0 46 39 83 87 83
s87 -37 87 -83s-39 -83 -87 -83s-87 37 -87 83z" />
    <glyph glyph-name="A" unicode="A" horiz-adv-x="565" 
d="M285 60h47l-25 84h-162l-8 -28c-3 -9 -5 -22 -5 -27c0 -18 13 -29 45 -29v-60h-176v60c35 0 53 9 59 27l172 549h96l190 -576h46v-60h-279v60zM287 210l-61 202l-61 -202h122z" />
    <glyph glyph-name="B" unicode="B" horiz-adv-x="585" 
d="M249 576v-210h25c40 0 83 34 83 106s-33 104 -73 104h-35zM249 60h34c42 0 84 24 84 121c0 88 -35 125 -88 125h-30v-246zM28 576v60h303c106 0 206 -48 206 -146c0 -108 -100 -149 -194 -157c93 -11 209 -57 209 -169c0 -98 -74 -164 -199 -164h-325v60h46v516h-46z" />
    <glyph glyph-name="C" unicode="C" horiz-adv-x="548" 
d="M507 398h-41c-27 76 -78 195 -150 195c-73 0 -89 -101 -89 -269c0 -111 5 -272 106 -272c78 0 111 78 129 153l54 -14c-13 -83 -64 -214 -215 -214c-162 0 -274 148 -274 323c0 178 105 347 283 347c75 0 87 -39 117 -39c11 0 28 19 31 33h44z" />
    <glyph glyph-name="D" unicode="D" horiz-adv-x="604" 
d="M289 60c66 0 87 55 87 263s-17 253 -95 253h-25v-516h33zM281 636c193 0 293 -158 293 -309c0 -165 -91 -327 -273 -327h-273v60h46v516h-46v60h253z" />
    <glyph glyph-name="E" unicode="E" horiz-adv-x="564" 
d="M523 225v-225h-495v60h46v516h-46v60h486l5 -216h-43c-8 75 -58 156 -185 156h-35v-221c41 0 94 41 99 102h46v-271h-46c0 65 -48 112 -99 113v-239h63c100 0 164 127 166 165h38z" />
    <glyph glyph-name="F" unicode="F" horiz-adv-x="527" 
d="M310 60v-60h-282v60h46v516h-46v60h478l5 -216h-43c-8 75 -50 156 -177 156h-35v-221c41 0 90 41 95 102h46v-271h-46c0 65 -44 112 -95 113v-239h54z" />
    <glyph glyph-name="G" unicode="G" horiz-adv-x="592" 
d="M288 36c52 0 66 50 66 88v94h-57l3 60h263v-60h-46v-231h-40c-8 21 -24 47 -38 47c-32 0 -69 -53 -155 -53c-150 0 -256 144 -256 319c0 182 111 347 280 347c75 0 97 -39 127 -39c11 0 30 19 33 33h44l5 -243h-41c-27 76 -79 195 -151 195c-73 0 -100 -56 -100 -269
c0 -193 1 -288 63 -288z" />
    <glyph glyph-name="H" unicode="H" horiz-adv-x="628" 
d="M256 295v-235h43v-60h-271v60h46v516h-46v60h271v-60h-43v-211h116v211h-43v60h271v-60h-46v-516h46v-60h-271v60h43v235h-116z" />
    <glyph glyph-name="I" unicode="I" horiz-adv-x="336" 
d="M259 576v-516h46v-60h-274v60h46v516h-46v60h274v-60h-46z" />
    <glyph glyph-name="J" unicode="J" horiz-adv-x="492" 
d="M236 160v416h-46v60h274v-60h-46v-416c0 -112 -89 -179 -222 -179c-107 0 -195 55 -195 151c0 55 35 104 90 104c49 0 89 -39 89 -88c0 -41 -33 -77 -64 -83c8 -15 27 -28 48 -28c56 0 72 67 72 123z" />
    <glyph glyph-name="K" unicode="K" horiz-adv-x="638" 
d="M256 253v-193h43v-60h-271v60h46v516h-46v60h271v-60h-43v-235l160 181c14 15 20 28 20 37c0 11 -11 17 -35 17h-20v60h230v-60h-33c-36 0 -51 -13 -80 -47l-69 -80l157 -389h46v-60h-292v60h49l-90 240z" />
    <glyph glyph-name="L" unicode="L" horiz-adv-x="511" 
d="M300 60c78 0 136 116 148 217h41l-6 -277h-455v60h46v516h-46v60h274v-60h-46v-516h44z" />
    <glyph glyph-name="M" unicode="M" horiz-adv-x="716" 
d="M433 636h255v-60h-46v-516h46v-60h-274v60h46v458l-122 -518h-69l-128 518v-422c0 -32 30 -36 51 -36v-60h-164v60c20 0 50 4 50 36v480h-46v60h258l71 -283z" />
    <glyph glyph-name="N" unicode="N" horiz-adv-x="574" 
d="M499 0h-143l-211 456v-360c0 -32 34 -36 54 -36v-60h-171v60c20 0 54 4 54 36v480h-46v60h222l186 -393v297c0 32 -30 36 -50 36v60h156v-60c-21 0 -51 -4 -51 -36v-540z" />
    <glyph glyph-name="O" unicode="O" horiz-adv-x="584" 
d="M292 647c165 0 264 -155 264 -333s-99 -333 -264 -333c-166 0 -264 155 -264 333s99 333 264 333zM292 593c-60 0 -66 -57 -66 -279s6 -279 66 -279s66 57 66 279s-6 279 -66 279z" />
    <glyph glyph-name="P" unicode="P" horiz-adv-x="576" 
d="M256 576v-233h39c52 0 68 64 68 117s-16 116 -68 116h-39zM328 636c102 0 224 -50 224 -176s-101 -176 -214 -176h-82v-224h52v-60h-280v60h46v516h-46v60h300z" />
    <glyph glyph-name="Q" unicode="Q" horiz-adv-x="584" 
d="M292 647c165 0 264 -155 264 -333c0 -112 -39 -215 -110 -276c16 -18 32 -31 52 -31c25 0 30 23 37 43l36 -7c0 -68 -41 -165 -120 -165c-67 0 -95 50 -113 107c-15 -3 -30 -4 -46 -4c-166 0 -264 155 -264 333s99 333 264 333zM292 593c-60 0 -66 -57 -66 -279
c0 -46 0 -85 1 -118c13 5 24 11 40 11c36 0 64 -18 88 -44c2 39 3 88 3 151c0 222 -6 279 -66 279zM322 43c-16 59 -31 112 -80 112c-5 0 -9 -2 -13 -4c6 -89 22 -116 63 -116c12 0 22 3 30 8z" />
    <glyph glyph-name="R" unicode="R" horiz-adv-x="600" 
d="M251 576v-208h39c45 0 71 51 71 104s-26 104 -71 104h-39zM470 -13c-75 0 -127 60 -127 143v65c0 39 -4 71 -31 96c-12 12 -30 18 -61 18v-249h46v-60h-269v60h46v516h-46v60h300c102 0 217 -26 217 -146c0 -126 -116 -150 -187 -154c67 -11 116 -40 134 -63
c23 -30 33 -76 35 -114s9 -69 28 -69c17 0 29 9 40 21v-54c-27 -35 -66 -70 -125 -70z" />
    <glyph glyph-name="S" unicode="S" horiz-adv-x="489" 
d="M216 647c75 0 98 -39 134 -39c16 0 18 22 29 34h42v-215h-37c-25 74 -77 166 -170 166c-39 0 -68 -29 -68 -68c0 -59 65 -85 135 -118c86 -40 181 -91 181 -223c0 -109 -87 -203 -196 -203c-96 0 -136 46 -154 46s-33 -22 -43 -42h-40v234h33c43 -93 97 -181 191 -181
c39 0 73 29 73 68c0 64 -66 92 -137 127c-80 40 -166 90 -166 214c0 110 77 200 193 200z" />
    <glyph glyph-name="T" unicode="T" horiz-adv-x="560" 
d="M187 587c-69 -13 -106 -144 -121 -223l-47 3l11 269h496l11 -269l-47 -3c-15 79 -52 210 -121 223v-527h53v-60h-288v60h53v527z" />
    <glyph glyph-name="U" unicode="U" horiz-adv-x="570" 
d="M250 178c0 -64 23 -126 88 -126c58 0 92 58 92 125v358c0 31 -16 41 -52 41v60h170v-60c-36 0 -52 -10 -52 -41v-353c0 -112 -63 -201 -206 -201c-140 0 -222 81 -222 197v398h-46v60h274v-60h-46v-398z" />
    <glyph glyph-name="V" unicode="V" horiz-adv-x="540" 
d="M6 576v60h276v-60h-51l92 -322l84 276c2 7 3 15 3 21c0 20 -15 25 -30 25h-20v60h174v-60c-36 0 -51 -17 -61 -49l-157 -527h-93l-171 576h-46z" />
    <glyph glyph-name="W" unicode="W" horiz-adv-x="819" 
d="M406 384l-104 -384h-93l-161 576h-42v60h269v-60h-51l87 -306l67 217l-25 89h-46v60h269v-60h-45l83 -306l72 260c2 7 3 15 3 21c0 20 -15 25 -30 25h-20v60h174v-60c-36 0 -51 -17 -61 -49l-146 -527h-93z" />
    <glyph glyph-name="X" unicode="X" horiz-adv-x="580" 
d="M327 434l61 88c10 15 15 28 15 36c0 15 -7 18 -31 18h-16v60h183v-60h-15c-30 0 -43 -18 -59 -41l-107 -160l170 -315h46v-60h-293v60h54l-94 172l-81 -122c-6 -9 -12 -20 -12 -28c0 -11 6 -22 29 -22h18v-60h-189v60h23c32 0 50 24 68 52l113 180l-155 284h-46v60h288
v-60h-46z" />
    <glyph glyph-name="Y" unicode="Y" horiz-adv-x="574" 
d="M377 576v60h191v-60h-15c-28 0 -45 -16 -58 -41l-121 -242v-233h58v-60h-298v60h58v211l-140 305h-46v60h288v-60h-46l97 -210l74 155c8 16 12 29 12 37c0 15 -14 18 -38 18h-16z" />
    <glyph glyph-name="Z" unicode="Z" horiz-adv-x="544" 
d="M98 359h-44l14 277h449v-27l-286 -562c153 0 205 133 241 232h43l-13 -279h-483v15l282 569c-107 0 -170 -95 -203 -225z" />
    <glyph glyph-name="bracketleft" unicode="[" horiz-adv-x="233" 
d="M139 637v-659h84v-40h-184v737h184v-38h-84z" />
    <glyph glyph-name="backslash" unicode="\" horiz-adv-x="402" 
d="M398 -19h-83l-311 655h83z" />
    <glyph glyph-name="bracketright" unicode="]" horiz-adv-x="233" 
d="M95 637l-84 1v38h184v-737h-184v40h84v658z" />
    <glyph glyph-name="asciicircum" unicode="^" horiz-adv-x="325" 
d="M129 687h67l111 -167h-38l-107 109l-106 -109h-38z" />
    <glyph glyph-name="underscore" unicode="_" horiz-adv-x="678" 
d="M639 -134h-600v70h600v-70z" />
    <glyph glyph-name="grave" unicode="`" horiz-adv-x="225" 
d="M219 520h-50l-119 86c-18 13 -39 31 -39 46c0 20 14 37 34 37c40 0 107 -103 174 -169z" />
    <glyph glyph-name="a" unicode="a" 
d="M255 230c-53 -16 -83 -54 -83 -116c0 -29 14 -52 39 -52c27 0 44 24 44 52v116zM225 468c107 0 164 -54 164 -139v-217c0 -24 8 -51 31 -51c9 0 17 3 22 7l6 -33c-20 -20 -52 -45 -93 -45c-45 0 -73 34 -89 61c-25 -27 -71 -63 -126 -63c-61 0 -114 43 -114 112
c0 63 37 99 88 125c43 22 94 37 141 57v69c0 36 -22 67 -59 67c-15 0 -27 -5 -36 -14c11 -14 16 -29 16 -49c0 -34 -30 -60 -64 -60s-63 27 -63 61c0 81 95 112 176 112z" />
    <glyph glyph-name="b" unicode="b" 
d="M234 400c-21 0 -32 -12 -47 -28v-249c0 -38 5 -85 42 -85c35 0 45 23 45 181c0 144 -7 181 -40 181zM285 468c109 0 146 -127 146 -234c0 -119 -63 -246 -182 -246c-52 0 -91 26 -119 56l-46 -56h-37v588h-39v53l177 7v-217c28 26 58 49 100 49z" />
    <glyph glyph-name="c" unicode="c" horiz-adv-x="413" 
d="M384 355c0 -33 -34 -70 -67 -70c-34 0 -66 29 -66 67c0 24 11 41 28 53c-3 9 -14 16 -32 16c-36 0 -65 -24 -65 -197c0 -83 6 -168 74 -168c43 0 68 39 89 75l42 -24c-20 -45 -68 -119 -156 -119c-140 0 -205 113 -205 234c0 139 89 246 217 246c72 0 141 -46 141 -113z
" />
    <glyph glyph-name="d" unicode="d" horiz-adv-x="479" 
d="M273 82v306c-12 11 -22 19 -39 19c-39 0 -47 -46 -47 -174s3 -174 42 -174c14 0 29 11 44 23zM276 576h-43v53l183 7v-586h36v-50l-175 -8v50c-25 -26 -61 -54 -108 -54c-103 0 -141 117 -141 220c0 118 39 260 157 260c38 0 64 -18 88 -35z" />
    <glyph glyph-name="e" unicode="e" horiz-adv-x="426" 
d="M182 278h81v65c0 31 -10 79 -41 79c-28 0 -40 -46 -40 -76v-68zM182 224c0 -97 11 -165 79 -165c43 0 75 30 101 63l38 -34c-29 -41 -80 -100 -168 -100c-140 0 -205 113 -205 234c0 139 75 246 203 246c107 0 170 -97 170 -247z" />
    <glyph glyph-name="f" unicode="f" horiz-adv-x="301" 
d="M68 50v354h-49v55h49c0 87 50 185 145 185c50 0 81 -29 81 -71c0 -27 -21 -52 -54 -52c-29 0 -49 23 -49 52c0 18 5 33 5 33c-15 -6 -37 -21 -37 -65c0 -35 27 -67 52 -82h65v-55h-65v-354h55v-50h-239v50h41z" />
    <glyph glyph-name="g" unicode="g" horiz-adv-x="457" 
d="M104 0c-12 -15 -17 -27 -17 -47c0 -57 68 -70 125 -70c55 0 129 14 129 60c0 42 -71 38 -144 41c-32 1 -65 6 -93 16zM219 222c44 0 45 58 45 102s-1 102 -45 102s-45 -58 -45 -102s1 -102 45 -102zM360 413c22 -23 35 -54 35 -89c0 -90 -86 -144 -176 -144
c-25 0 -49 4 -72 12c-16 -10 -31 -24 -31 -40c0 -29 28 -35 142 -36c92 -1 176 -30 176 -116c0 -110 -92 -162 -232 -162c-80 0 -184 14 -184 94c0 34 33 60 62 80c-26 16 -44 42 -44 80c0 52 37 83 78 115c-42 24 -71 65 -71 117c0 90 86 144 176 144c43 0 84 -12 116 -34
c21 26 45 49 76 49c29 0 56 -22 56 -51c0 -28 -14 -45 -36 -45s-33 19 -33 43v8c-16 -3 -29 -12 -38 -25z" />
    <glyph glyph-name="h" unicode="h" horiz-adv-x="467" 
d="M197 636v-248c31 34 70 80 129 80c74 0 91 -56 92 -113v-305h36v-50h-176v331c0 19 -9 40 -28 40c-25 0 -41 -21 -53 -35v-286h36v-50h-215v50h36v526h-39v53z" />
    <glyph glyph-name="i" unicode="i" horiz-adv-x="246" 
d="M37 576c0 36 37 66 83 66s83 -30 83 -66s-37 -66 -83 -66s-83 30 -83 66zM197 50h36v-50h-215v50h36v353h-39v53l182 7v-413z" />
    <glyph glyph-name="j" unicode="j" horiz-adv-x="258" 
d="M64 576c0 36 37 66 83 66s83 -30 83 -66s-37 -66 -83 -66s-83 30 -83 66zM224 10c0 -101 -58 -173 -147 -173c-37 0 -73 27 -73 64c0 30 14 55 49 55c31 0 49 -24 49 -51c0 -13 -8 -28 -8 -28c23 3 39 25 39 57c0 37 -24 59 -52 78v391h-51v53l194 7v-453z" />
    <glyph glyph-name="k" unicode="k" horiz-adv-x="480" 
d="M197 242l144 167h-58v50h169v-50h-47l-57 -68l89 -291h36v-50h-168l-65 220l-43 -52v-118h36v-50h-215v50h36v526h-39v53l182 7v-394z" />
    <glyph glyph-name="l" unicode="l" horiz-adv-x="239" 
d="M193 50h36v-50h-215v50h36v526h-39v53l182 7v-586z" />
    <glyph glyph-name="m" unicode="m" horiz-adv-x="693" 
d="M423 336l-1 -286h36v-50h-176v331c0 19 -9 40 -28 40c-25 0 -41 -21 -53 -35v-286h36v-50h-215v50h36v354h-39v53l176 7l6 -76c31 34 70 80 129 80c53 0 77 -39 92 -83c31 34 71 83 130 83c74 0 91 -56 92 -113v-305h36v-50h-176v331c0 19 -9 40 -28 40
c-25 0 -41 -21 -53 -35z" />
    <glyph glyph-name="n" unicode="n" horiz-adv-x="471" 
d="M195 464l6 -76c31 34 70 80 129 80c74 0 91 -56 92 -113v-305h36v-50h-176v331c0 19 -9 40 -28 40c-25 0 -41 -21 -53 -35v-286h36v-50h-215v50h36v354h-39v53z" />
    <glyph glyph-name="o" unicode="o" 
d="M230 34c38 0 45 58 45 196s-7 192 -45 192s-45 -54 -45 -192s7 -196 45 -196zM230 -12c-126 0 -203 116 -203 242s77 238 203 238c120 0 203 -118 203 -238c0 -122 -81 -242 -203 -242z" />
    <glyph glyph-name="p" unicode="p" horiz-adv-x="473" 
d="M304 468c88 0 143 -100 143 -240s-61 -240 -159 -240c-34 0 -57 16 -87 37v-140h36v-50h-215v50h36v518h-39v53l176 7l5 -49c31 34 67 54 104 54zM201 68c13 -12 23 -20 42 -20c37 0 46 36 46 173s-10 174 -39 174c-25 0 -37 -13 -49 -25v-302z" />
    <glyph glyph-name="q" unicode="q" horiz-adv-x="461" 
d="M378 468h39v-583h36v-50h-215v50h36v146c-26 -22 -63 -43 -97 -43c-90 0 -149 100 -149 240s92 240 180 240c63 0 92 -25 123 -59zM274 77v273c0 36 -16 67 -41 67c-36 0 -47 -22 -47 -181c0 -137 6 -181 43 -181c20 0 32 10 45 22z" />
    <glyph glyph-name="r" unicode="r" horiz-adv-x="371" 
d="M201 282v-232h48v-50h-227v50h36v354h-39v53l163 6l6 -85c20 42 51 95 107 95c41 0 70 -36 70 -77c0 -40 -28 -76 -68 -76c-30 0 -52 23 -61 43c-22 -12 -35 -63 -35 -81z" />
    <glyph glyph-name="s" unicode="s" horiz-adv-x="384" 
d="M179 468c42 0 63 -25 86 -25c14 0 23 10 30 22h34v-144h-34c-24 43 -62 97 -121 97c-27 0 -54 -13 -54 -40c0 -40 53 -54 109 -76c63 -25 131 -61 131 -159c0 -85 -51 -155 -152 -155c-56 0 -81 30 -107 30c-17 0 -26 -14 -34 -30h-31v158h35c32 -54 73 -109 144 -109
c30 0 58 17 58 47c0 46 -72 57 -137 87c-54 25 -103 62 -103 143c0 83 63 154 146 154z" />
    <glyph glyph-name="t" unicode="t" horiz-adv-x="298" 
d="M196 602v-142h74v-56h-74v-279c0 -28 7 -50 30 -50c18 0 31 9 42 19l20 -32c-25 -34 -76 -74 -119 -74c-84 0 -113 58 -113 121v295h-46v47c49 29 92 93 114 151h72z" />
    <glyph glyph-name="u" unicode="u" horiz-adv-x="471" 
d="M276 409h-37v50l180 3v-412h39v-50h-179v78c-30 -35 -73 -84 -132 -84c-74 0 -91 56 -92 113v302h-40v50l180 3v-331c0 -19 9 -40 28 -40c25 0 41 21 53 35v283z" />
    <glyph glyph-name="v" unicode="v" horiz-adv-x="430" 
d="M6 468h218v-50h-37l72 -217l74 217h-44v50h135v-50h-32l-142 -418h-65l-145 418h-34v50z" />
    <glyph glyph-name="w" unicode="w" horiz-adv-x="593" 
d="M311 468h59l75 -239l57 189h-43v50h128v-50h-32l-110 -418h-64l-83 264l-81 -264h-65l-112 418h-34v50h214v-50h-37l48 -189z" />
    <glyph glyph-name="x" unicode="x" horiz-adv-x="447" 
d="M8 418v50h225v-50h-39l57 -99l78 99h-40l-4 50h139v-50h-33l-114 -145l129 -223h35v-50h-226v50h39l-63 114l-89 -114h49v-50h-145v50h31l126 161l-120 207h-35z" />
    <glyph glyph-name="y" unicode="y" horiz-adv-x="429" 
d="M7 418v50h218v-50h-39l74 -200l73 200h-43v50h133v-50h-31l-171 -452c-20 -53 -70 -126 -144 -126c-40 0 -75 34 -75 74c0 41 25 78 66 78c31 0 57 -28 69 -56c22 17 43 57 52 90l-150 392h-32z" />
    <glyph glyph-name="z" unicode="z" horiz-adv-x="398" 
d="M21 0v50l197 371h-46c-50 0 -81 -46 -96 -123h-37v170h334v-50l-198 -371h42c62 0 108 62 118 129h38v-176h-352z" />
    <glyph glyph-name="braceleft" unicode="{" horiz-adv-x="372" 
d="M226 472c0 -133 -57 -155 -173 -173c117 -18 173 -40 173 -173v-39c0 -75 9 -146 128 -146v-37c-107 0 -215 38 -215 148v95c0 60 -10 115 -135 129v46c125 14 135 69 135 129v95c0 110 108 148 215 148v-37c-119 0 -128 -71 -128 -146v-39z" />
    <glyph glyph-name="bar" unicode="|" horiz-adv-x="137" 
d="M100 -11h-61v708h61v-708z" />
    <glyph glyph-name="braceright" unicode="}" horiz-adv-x="372" 
d="M146 472v39c0 75 -9 146 -128 146v37c107 0 215 -38 215 -148v-95c0 -60 10 -115 135 -129v-46c-125 -14 -135 -69 -135 -129v-95c0 -110 -108 -148 -215 -148v37c119 0 128 71 128 146v39c0 133 56 155 173 173c-116 18 -173 40 -173 173z" />
    <glyph glyph-name="asciitilde" unicode="~" horiz-adv-x="360" 
d="M125 576c42 0 79 -46 126 -46c29 0 45 20 54 50h27c-10 -45 -29 -109 -95 -109c-44 0 -103 46 -130 46c-28 0 -43 -21 -51 -49h-28c12 47 30 108 97 108z" />
    <glyph glyph-name="exclamdown" unicode="&#xa1;" horiz-adv-x="239" 
d="M33 -49c0 30 67 339 67 339h40s67 -309 67 -339c0 -46 -39 -83 -87 -83s-87 37 -87 83zM33 437c0 46 39 83 87 83s87 -37 87 -83s-39 -83 -87 -83s-87 37 -87 83z" />
    <glyph glyph-name="cent" unicode="&#xa2;" horiz-adv-x="395" 
d="M201 598h35v-58c72 0 140 -46 140 -113c0 -33 -34 -70 -67 -70c-34 0 -66 29 -66 67c0 24 11 41 28 53c-3 9 -14 16 -32 16h-3v-364c4 -1 8 -1 12 -1c43 0 68 39 89 75l42 -24c-19 -43 -63 -111 -143 -118v-61h-35v61c-125 11 -183 119 -183 233c0 126 74 226 183 243v61
zM201 150v324c-16 -23 -27 -73 -27 -178c0 -57 3 -115 27 -146z" />
    <glyph glyph-name="sterling" unicode="&#xa3;" horiz-adv-x="456" 
d="M65 285h51c-31 40 -67 81 -67 145c0 104 79 171 205 171c99 0 173 -65 173 -156c0 -48 -22 -104 -69 -104c-52 0 -77 49 -77 101c0 38 22 63 39 80c-17 15 -29 21 -50 21c-55 0 -67 -57 -67 -112c0 -45 28 -90 36 -146h78v-67h-81c-5 -23 -13 -52 -24 -80c4 0 8 -1 11 -1
c25 0 38 13 63 13c21 0 46 -15 64 -15c16 0 28 22 31 50h35c-3 -79 -26 -185 -109 -185c-51 0 -92 37 -127 68c-23 -39 -51 -68 -81 -68c-42 0 -70 39 -70 81c0 43 27 86 66 86c21 0 43 -7 64 -14c1 12 2 23 2 34s-2 21 -5 31h-91v67zM146 97c-12 9 -23 14 -34 14
c-18 0 -28 -20 -28 -38c0 -12 9 -23 21 -23c17 0 31 20 41 47z" />
    <glyph glyph-name="dieresis" unicode="&#xa8;" horiz-adv-x="325" 
d="M88 620c29 0 53 -24 53 -53c0 -30 -24 -52 -53 -52c-30 0 -54 22 -54 52c0 29 24 53 54 53zM238 620c29 0 53 -24 53 -53c0 -30 -24 -52 -53 -52c-30 0 -53 22 -53 52c0 29 23 53 53 53z" />
    <glyph glyph-name="acute" unicode="&#xb4;" horiz-adv-x="222" 
d="M54 520h-48l68 77c22 24 73 92 104 92c22 0 33 -19 33 -35c0 -23 -20 -35 -60 -63z" />
    <glyph glyph-name="cedilla" unicode="&#xb8;" horiz-adv-x="227" 
d="M96 0h40l-29 -48s14 2 35 2c35 0 64 -25 64 -60c0 -46 -44 -70 -90 -70c-38 0 -67 7 -100 21l15 32c26 -10 40 -15 66 -15c18 0 34 12 34 30c0 15 -14 26 -29 26c-18 0 -32 -4 -32 -4l-19 15z" />
    <glyph glyph-name="questiondown" unicode="&#xbf;" horiz-adv-x="335" 
d="M74 260c17 17 40 33 68 33c48 0 78 -43 78 -91c0 -85 -46 -127 -46 -212c0 -24 9 -51 35 -51c29 0 43 20 62 55l41 -18c-20 -46 -71 -108 -166 -108c-71 0 -130 57 -130 128c0 100 135 160 135 220c0 15 -12 28 -27 28c-14 0 -22 -5 -32 -17zM240 437
c0 -46 -39 -83 -87 -83s-87 37 -87 83s39 83 87 83s87 -37 87 -83z" />
    <glyph glyph-name="Agrave" unicode="&#xc0;" horiz-adv-x="565" 
d="M285 60h47l-25 84h-162l-8 -28c-3 -9 -5 -22 -5 -27c0 -18 13 -29 45 -29v-60h-176v60c35 0 53 9 59 27l172 549h96l190 -576h46v-60h-279v60zM287 210l-61 202l-61 -202h122zM365 668h-50l-119 86c-18 13 -39 31 -39 46c0 20 14 37 34 37c40 0 107 -103 174 -169z" />
    <glyph glyph-name="Aacute" unicode="&#xc1;" horiz-adv-x="565" 
d="M285 60h47l-25 84h-162l-8 -28c-3 -9 -5 -22 -5 -27c0 -18 13 -29 45 -29v-60h-176v60c35 0 53 9 59 27l172 549h96l190 -576h46v-60h-279v60zM287 210l-61 202l-61 -202h122zM252 668h-48l68 77c22 24 73 92 104 92c22 0 33 -19 33 -35c0 -23 -20 -35 -60 -63z" />
    <glyph glyph-name="Acircumflex" unicode="&#xc2;" horiz-adv-x="565" 
d="M285 60h47l-25 84h-162l-8 -28c-3 -9 -5 -22 -5 -27c0 -18 13 -29 45 -29v-60h-176v60c35 0 53 9 59 27l172 549h96l190 -576h46v-60h-281zM287 210l-61 202l-61 -202h122zM247 836h67l111 -167h-38l-107 109l-106 -109h-38z" />
    <glyph glyph-name="Atilde" unicode="&#xc3;" horiz-adv-x="565" 
d="M285 60h47l-25 84h-162l-8 -28c-3 -9 -5 -22 -5 -27c0 -18 13 -29 45 -29v-60h-176v60c35 0 53 9 59 27l172 549h96l190 -576h46v-60h-279v60zM287 210l-61 202l-61 -202h122zM236 776c42 0 79 -46 126 -46c29 0 45 20 54 50h27c-10 -45 -29 -109 -95 -109
c-44 0 -103 46 -130 46c-28 0 -43 -21 -51 -49h-28c12 47 30 108 97 108z" />
    <glyph glyph-name="Adieresis" unicode="&#xc4;" horiz-adv-x="565" 
d="M285 60h47l-25 84h-162l-8 -28c-3 -9 -5 -22 -5 -27c0 -18 13 -29 45 -29v-60h-176v60c35 0 53 9 59 27l172 549h96l190 -576h46v-60h-279v60zM287 210l-61 202l-61 -202h122zM209 774c29 0 53 -24 53 -53c0 -30 -24 -52 -53 -52c-30 0 -54 22 -54 52c0 29 24 53 54 53z
M359 774c29 0 53 -24 53 -53c0 -30 -24 -52 -53 -52c-30 0 -53 22 -53 52c0 29 23 53 53 53z" />
    <glyph glyph-name="AE" unicode="&#xc6;" horiz-adv-x="912" 
d="M874 225v-225h-495v60h46v158h-198l-7 -10c-17 -30 -57 -94 -57 -112c0 -30 23 -36 59 -36h14v-60h-219v60h10c27 0 46 14 80 70l270 446h-64v60h552l5 -216h-43c-8 75 -58 156 -185 156h-35v-221c41 0 94 41 99 102h46v-271h-46c0 65 -48 112 -99 113v-239h63
c100 0 164 127 166 165h38zM425 284v262l-158 -262h158z" />
    <glyph glyph-name="Ccedilla" unicode="&#xc7;" horiz-adv-x="533" 
d="M499 398h-41c-27 76 -78 195 -150 195c-73 0 -89 -101 -89 -269c0 -111 5 -272 106 -272c78 0 111 78 129 153l54 -14c-13 -81 -62 -208 -204 -214l-15 -25s14 2 35 2c35 0 64 -25 64 -60c0 -46 -44 -70 -90 -70c-38 0 -67 7 -100 21l15 32c26 -10 40 -15 66 -15
c18 0 34 12 34 30c0 15 -14 26 -29 26c-18 0 -32 -4 -32 -4l-19 15l31 50c-146 16 -245 156 -245 321c0 178 105 347 283 347c75 0 87 -39 117 -39c11 0 28 19 31 33h44z" />
    <glyph glyph-name="Egrave" unicode="&#xc8;" horiz-adv-x="564" 
d="M523 225v-225h-495v60h46v516h-46v60h486l5 -216h-43c-8 75 -58 156 -185 156h-35v-221c41 0 94 41 99 102h46v-271h-46c0 65 -48 112 -99 113v-239h63c100 0 164 127 166 165h38zM385 668h-50l-119 86c-18 13 -39 31 -39 46c0 20 14 37 34 37c40 0 107 -103 174 -169z
" />
    <glyph glyph-name="Eacute" unicode="&#xc9;" horiz-adv-x="564" 
d="M523 225v-225h-495v60h46v516h-46v60h486l5 -216h-43c-8 75 -58 156 -185 156h-35v-221c41 0 94 41 99 102h46v-271h-46c0 65 -48 112 -99 113v-239h63c100 0 164 127 166 165h38zM303 669h-48l68 77c22 24 73 92 104 92c22 0 33 -19 33 -35c0 -23 -20 -35 -60 -63z" />
    <glyph glyph-name="Ecircumflex" unicode="&#xca;" horiz-adv-x="564" 
d="M523 225v-225h-495v60h46v516h-46v60h486l5 -216h-43c-8 75 -58 156 -185 156h-35v-221c41 0 94 41 99 102h46v-271h-46c0 65 -48 112 -99 113v-239h63c100 0 164 127 166 165h38zM289 836h67l111 -167h-38l-107 109l-106 -109h-38z" />
    <glyph glyph-name="Edieresis" unicode="&#xcb;" horiz-adv-x="564" 
d="M523 225v-225h-495v60h46v516h-46v60h486l5 -216h-43c-8 75 -58 156 -185 156h-35v-221c41 0 94 41 99 102h46v-271h-46c0 65 -48 112 -99 113v-239h63c100 0 164 127 166 165h38zM245 774c29 0 53 -24 53 -53c0 -30 -24 -52 -53 -52c-30 0 -54 22 -54 52
c0 29 24 53 54 53zM395 774c29 0 53 -24 53 -53c0 -30 -24 -52 -53 -52c-30 0 -53 22 -53 52c0 29 23 53 53 53z" />
    <glyph glyph-name="Igrave" unicode="&#xcc;" horiz-adv-x="336" 
d="M259 576v-516h46v-60h-274v60h46v516h-46v60h274v-60h-46zM277 669h-50l-119 86c-18 13 -39 31 -39 46c0 20 14 37 34 37c40 0 107 -103 174 -169z" />
    <glyph glyph-name="Iacute" unicode="&#xcd;" horiz-adv-x="336" 
d="M259 576v-516h46v-60h-274v60h46v516h-46v60h274v-60h-46zM133 669h-48l68 77c22 24 73 92 104 92c22 0 33 -19 33 -35c0 -23 -20 -35 -60 -63z" />
    <glyph glyph-name="Icircumflex" unicode="&#xce;" horiz-adv-x="336" 
d="M259 576v-516h46v-60h-274v60h46v516h-46v60h274v-60h-46zM140 836h67l111 -167h-38l-107 109l-106 -109h-38z" />
    <glyph glyph-name="Idieresis" unicode="&#xcf;" horiz-adv-x="336" 
d="M259 576v-516h46v-60h-274v60h46v516h-46v60h274v-60h-46zM98 773c29 0 53 -24 53 -53c0 -30 -24 -52 -53 -52c-30 0 -54 22 -54 52c0 29 24 53 54 53zM248 773c29 0 53 -24 53 -53c0 -30 -24 -52 -53 -52c-30 0 -53 22 -53 52c0 29 23 53 53 53z" />
    <glyph glyph-name="Ntilde" unicode="&#xd1;" horiz-adv-x="574" 
d="M499 0h-143l-211 456v-360c0 -32 34 -36 54 -36v-60h-171v60c20 0 54 4 54 36v480h-46v60h222l186 -393v297c0 32 -30 36 -50 36v60h156v-60c-21 0 -51 -4 -51 -36v-540zM271 777c42 0 79 -46 126 -46c29 0 45 20 54 50h27c-10 -45 -29 -109 -95 -109
c-44 0 -103 46 -130 46c-28 0 -43 -21 -51 -49h-28c12 47 30 108 97 108z" />
    <glyph glyph-name="Ograve" unicode="&#xd2;" horiz-adv-x="584" 
d="M292 647c165 0 264 -155 264 -333s-99 -333 -264 -333c-166 0 -264 155 -264 333s99 333 264 333zM292 593c-60 0 -66 -57 -66 -279s6 -279 66 -279s66 57 66 279s-6 279 -66 279zM400 668h-50l-119 86c-18 13 -39 31 -39 46c0 20 14 37 34 37c40 0 107 -103 174 -169z
" />
    <glyph glyph-name="Oacute" unicode="&#xd3;" horiz-adv-x="584" 
d="M292 647c165 0 264 -155 264 -333s-99 -333 -264 -333c-166 0 -264 155 -264 333s99 333 264 333zM292 593c-60 0 -66 -57 -66 -279s6 -279 66 -279s66 57 66 279s-6 279 -66 279zM243 668h-48l68 77c22 24 73 92 104 92c22 0 33 -19 33 -35c0 -23 -20 -35 -60 -63z" />
    <glyph glyph-name="Ocircumflex" unicode="&#xd4;" horiz-adv-x="584" 
d="M292 647c165 0 264 -155 264 -333s-99 -333 -264 -333c-166 0 -264 155 -264 333s99 333 264 333zM292 593c-60 0 -66 -57 -66 -279s6 -279 66 -279s66 57 66 279s-6 279 -66 279zM259 835h67l111 -167h-38l-107 109l-106 -109h-38z" />
    <glyph glyph-name="Otilde" unicode="&#xd5;" horiz-adv-x="584" 
d="M292 647c165 0 264 -155 264 -333s-99 -333 -264 -333c-166 0 -264 155 -264 333s99 333 264 333zM292 593c-60 0 -66 -57 -66 -279s6 -279 66 -279s66 57 66 279s-6 279 -66 279zM240 776c42 0 79 -46 126 -46c29 0 45 20 54 50h27c-10 -45 -29 -109 -95 -109
c-44 0 -103 46 -130 46c-28 0 -43 -21 -51 -49h-28c12 47 30 108 97 108z" />
    <glyph glyph-name="Odieresis" unicode="&#xd6;" horiz-adv-x="584" 
d="M292 647c165 0 264 -155 264 -333s-99 -333 -264 -333c-166 0 -264 155 -264 333s99 333 264 333zM292 593c-60 0 -66 -57 -66 -279s6 -279 66 -279s66 57 66 279s-6 279 -66 279zM218 773c29 0 53 -24 53 -53c0 -30 -24 -52 -53 -52c-30 0 -54 22 -54 52
c0 29 24 53 54 53zM368 773c29 0 53 -24 53 -53c0 -30 -24 -52 -53 -52c-30 0 -53 22 -53 52c0 29 23 53 53 53z" />
    <glyph glyph-name="Oslash" unicode="&#xd8;" horiz-adv-x="581" 
d="M291 593c-60 0 -66 -57 -66 -279v-64l126 255c-7 67 -23 88 -60 88zM168 14l-27 -55h-60l44 89c-63 62 -98 160 -98 266c0 178 99 333 264 333c43 0 82 -11 116 -30l24 49h60l-40 -81c67 -61 104 -162 104 -271c0 -178 -99 -333 -264 -333c-46 0 -88 12 -123 33zM357 394
l-128 -257c7 -78 23 -102 62 -102c60 0 66 57 66 279v80z" />
    <glyph glyph-name="Ugrave" unicode="&#xd9;" horiz-adv-x="570" 
d="M250 178c0 -64 23 -126 88 -126c58 0 92 58 92 125v358c0 31 -16 41 -52 41v60h170v-60c-36 0 -52 -10 -52 -41v-353c0 -112 -63 -201 -206 -201c-140 0 -222 81 -222 197v398h-46v60h274v-60h-46v-398zM418 669h-50l-119 86c-18 13 -39 31 -39 46c0 20 14 37 34 37
c40 0 107 -103 174 -169z" />
    <glyph glyph-name="Uacute" unicode="&#xda;" horiz-adv-x="570" 
d="M250 178c0 -64 23 -126 88 -126c58 0 92 58 92 125v358c0 31 -16 41 -52 41v60h170v-60c-36 0 -52 -10 -52 -41v-353c0 -112 -63 -201 -206 -201c-140 0 -222 81 -222 197v398h-46v60h274v-60h-46v-398zM304 669h-48l68 77c22 24 73 92 104 92c22 0 33 -19 33 -35
c0 -23 -20 -35 -60 -63z" />
    <glyph glyph-name="Ucircumflex" unicode="&#xdb;" horiz-adv-x="570" 
d="M250 178c0 -64 23 -126 88 -126c58 0 92 58 92 125v358c0 31 -16 41 -52 41v60h170v-60c-36 0 -52 -10 -52 -41v-353c0 -112 -63 -201 -206 -201c-140 0 -222 81 -222 197v398h-46v60h274v-60h-46v-398zM288 836h67l111 -167h-38l-107 109l-106 -109h-38z" />
    <glyph glyph-name="Udieresis" unicode="&#xdc;" horiz-adv-x="570" 
d="M250 178c0 -64 23 -126 88 -126c58 0 92 58 92 125v358c0 31 -16 41 -52 41v60h170v-60c-36 0 -52 -10 -52 -41v-353c0 -112 -63 -201 -206 -201c-140 0 -222 81 -222 197v398h-46v60h274v-60h-46v-398zM267 774c29 0 53 -24 53 -53c0 -30 -24 -52 -53 -52
c-30 0 -54 22 -54 52c0 29 24 53 54 53zM417 774c29 0 53 -24 53 -53c0 -30 -24 -52 -53 -52c-30 0 -53 22 -53 52c0 29 23 53 53 53z" />
    <glyph glyph-name="Yacute" unicode="&#xdd;" horiz-adv-x="574" 
d="M377 576v60h191v-60h-15c-28 0 -45 -16 -58 -41l-121 -242v-233h58v-60h-298v60h58v211l-140 305h-46v60h288v-60h-46l97 -210l74 155c8 16 12 29 12 37c0 15 -14 18 -38 18h-16zM281 668h-48l68 77c22 24 73 92 104 92c22 0 33 -19 33 -35c0 -23 -20 -35 -60 -63z" />
    <glyph glyph-name="germandbls" unicode="&#xdf;" horiz-adv-x="481" 
d="M217 459v-459h-184v50h41v354h-49v55h49c0 87 50 185 145 185c80 0 138 -69 138 -148c0 -94 -47 -125 -47 -154c0 -22 44 -33 84 -64c35 -27 67 -68 67 -144c0 -73 -38 -146 -111 -146c-37 0 -53 20 -65 20c-6 0 -13 -12 -16 -20h-34v154h38c0 -65 19 -103 47 -103
c18 0 34 20 34 38c0 44 -38 54 -68 82c-19 18 -34 43 -34 88c0 79 48 116 48 195c0 60 -19 138 -67 138c-32 0 -55 -28 -55 -54c0 -30 17 -47 39 -67z" />
    <glyph glyph-name="agrave" unicode="&#xe0;" 
d="M255 230c-53 -16 -83 -54 -83 -116c0 -29 14 -52 39 -52c27 0 44 24 44 52v116zM225 468c107 0 164 -54 164 -139v-217c0 -24 8 -51 31 -51c9 0 17 3 22 7l6 -33c-20 -20 -52 -45 -93 -45c-45 0 -73 34 -89 61c-25 -27 -71 -63 -126 -63c-61 0 -114 43 -114 112
c0 63 37 99 88 125c43 22 94 37 141 57v69c0 36 -22 67 -59 67c-15 0 -27 -5 -36 -14c11 -14 16 -29 16 -49c0 -34 -30 -60 -64 -60s-63 27 -63 61c0 81 95 112 176 112zM305 527h-50l-119 86c-18 13 -39 31 -39 46c0 20 14 37 34 37c40 0 107 -103 174 -169z" />
    <glyph glyph-name="aacute" unicode="&#xe1;" 
d="M255 230c-53 -16 -83 -54 -83 -116c0 -29 14 -52 39 -52c27 0 44 24 44 52v116zM225 468c107 0 164 -54 164 -139v-217c0 -24 8 -51 31 -51c9 0 17 3 22 7l6 -33c-20 -20 -52 -45 -93 -45c-45 0 -73 34 -89 61c-25 -27 -71 -63 -126 -63c-61 0 -114 43 -114 112
c0 63 37 99 88 125c43 22 94 37 141 57v69c0 36 -22 67 -59 67c-15 0 -27 -5 -36 -14c11 -14 16 -29 16 -49c0 -34 -30 -60 -64 -60s-63 27 -63 61c0 81 95 112 176 112zM179 527h-48l68 77c22 24 73 92 104 92c22 0 33 -19 33 -35c0 -23 -20 -35 -60 -63z" />
    <glyph glyph-name="acircumflex" unicode="&#xe2;" 
d="M255 230c-53 -16 -83 -54 -83 -116c0 -29 14 -52 39 -52c27 0 44 24 44 52v116zM225 468c107 0 164 -54 164 -139v-217c0 -24 8 -51 31 -51c9 0 17 3 22 7l6 -33c-20 -20 -52 -45 -93 -45c-45 0 -73 34 -89 61c-25 -27 -71 -63 -126 -63c-61 0 -114 43 -114 112
c0 63 37 99 88 125c43 22 94 37 141 57v69c0 36 -22 67 -59 67c-15 0 -27 -5 -36 -14c11 -14 16 -29 16 -49c0 -34 -30 -60 -64 -60s-63 27 -63 61c0 81 95 112 176 112zM192 694h67l111 -167h-38l-107 109l-106 -109h-38z" />
    <glyph glyph-name="atilde" unicode="&#xe3;" 
d="M255 230c-53 -16 -83 -54 -83 -116c0 -29 14 -52 39 -52c27 0 44 24 44 52v116zM225 468c107 0 164 -54 164 -139v-217c0 -24 8 -51 31 -51c9 0 17 3 22 7l6 -33c-20 -20 -52 -45 -93 -45c-45 0 -73 34 -89 61c-25 -27 -71 -63 -126 -63c-61 0 -114 43 -114 112
c0 63 37 99 88 125c43 22 94 37 141 57v69c0 36 -22 67 -59 67c-15 0 -27 -5 -36 -14c11 -14 16 -29 16 -49c0 -34 -30 -60 -64 -60s-63 27 -63 61c0 81 95 112 176 112zM183 635c42 0 79 -46 126 -46c29 0 45 20 54 50h27c-10 -45 -29 -109 -95 -109c-44 0 -103 46 -130 46
c-28 0 -43 -21 -51 -49h-28c12 47 30 108 97 108z" />
    <glyph glyph-name="adieresis" unicode="&#xe4;" 
d="M255 230c-53 -16 -83 -54 -83 -116c0 -29 14 -52 39 -52c27 0 44 24 44 52v116zM225 468c107 0 164 -54 164 -139v-217c0 -24 8 -51 31 -51c9 0 17 3 22 7l6 -33c-20 -20 -52 -45 -93 -45c-45 0 -73 34 -89 61c-25 -27 -71 -63 -126 -63c-61 0 -114 43 -114 112
c0 63 37 99 88 125c43 22 94 37 141 57v69c0 36 -22 67 -59 67c-15 0 -27 -5 -36 -14c11 -14 16 -29 16 -49c0 -34 -30 -60 -64 -60s-63 27 -63 61c0 81 95 112 176 112zM138 632c29 0 53 -24 53 -53c0 -30 -24 -52 -53 -52c-30 0 -54 22 -54 52c0 29 24 53 54 53zM288 632
c29 0 53 -24 53 -53c0 -30 -24 -52 -53 -52c-30 0 -53 22 -53 52c0 29 23 53 53 53z" />
    <glyph glyph-name="ae" unicode="&#xe6;" horiz-adv-x="653" 
d="M589 122l38 -34c-29 -41 -80 -100 -168 -100c-84 0 -136 36 -171 95c-22 -37 -78 -95 -150 -95c-61 0 -114 43 -114 112c0 63 37 99 88 125c43 22 94 37 141 57v69c0 36 -22 67 -59 67c-15 0 -27 -5 -36 -14c11 -14 16 -29 16 -49c0 -34 -30 -60 -64 -60s-63 27 -63 61
c0 81 95 112 176 112c52 0 93 -13 121 -36c31 23 68 36 113 36c107 0 170 -97 170 -247l-218 3c0 -97 11 -165 79 -165c43 0 75 30 101 63zM409 278h81v65c0 31 -10 79 -41 79c-28 0 -40 -46 -40 -76v-68zM253 230c-53 -16 -83 -54 -83 -116c0 -29 14 -52 39 -52
c27 0 44 24 44 52v116z" />
    <glyph glyph-name="ccedilla" unicode="&#xe7;" horiz-adv-x="413" 
d="M384 355c0 -33 -34 -70 -67 -70c-34 0 -66 29 -66 67c0 24 11 41 28 53c-3 9 -14 16 -32 16c-36 0 -65 -24 -65 -197c0 -83 6 -168 74 -168c43 0 68 39 89 75l42 -24c-19 -44 -65 -115 -148 -119l-22 -36s14 2 35 2c35 0 64 -25 64 -60c0 -46 -44 -70 -90 -70
c-38 0 -67 7 -100 21l15 32c26 -10 40 -15 66 -15c18 0 34 12 34 30c0 15 -14 26 -29 26c-18 0 -32 -4 -32 -4l-19 15l39 61c-118 16 -174 120 -174 232c0 139 89 246 217 246c72 0 141 -46 141 -113z" />
    <glyph glyph-name="egrave" unicode="&#xe8;" horiz-adv-x="426" 
d="M182 278h81v65c0 31 -10 79 -41 79c-28 0 -40 -46 -40 -76v-68zM182 224c0 -97 11 -165 79 -165c43 0 75 30 101 63l38 -34c-29 -41 -80 -100 -168 -100c-140 0 -205 113 -205 234c0 139 75 246 203 246c107 0 170 -97 170 -247zM312 527h-50l-119 86
c-18 13 -39 31 -39 46c0 20 14 37 34 37c40 0 107 -103 174 -169z" />
    <glyph glyph-name="eacute" unicode="&#xe9;" horiz-adv-x="426" 
d="M182 278h81v65c0 31 -10 79 -41 79c-28 0 -40 -46 -40 -76v-68zM182 224c0 -97 11 -165 79 -165c43 0 75 30 101 63l38 -34c-29 -41 -80 -100 -168 -100c-140 0 -205 113 -205 234c0 139 75 246 203 246c107 0 170 -97 170 -247zM207 527h-48l68 77c22 24 73 92 104 92
c22 0 33 -19 33 -35c0 -23 -20 -35 -60 -63z" />
    <glyph glyph-name="ecircumflex" unicode="&#xea;" horiz-adv-x="426" 
d="M182 278h81v65c0 31 -10 79 -41 79c-28 0 -40 -46 -40 -76v-68zM182 224c0 -97 11 -165 79 -165c43 0 75 30 101 63l38 -34c-29 -41 -80 -100 -168 -100c-140 0 -205 113 -205 234c0 139 75 246 203 246c107 0 170 -97 170 -247zM190 694h67l111 -167h-38l-107 109
l-106 -109h-38z" />
    <glyph glyph-name="edieresis" unicode="&#xeb;" horiz-adv-x="426" 
d="M182 278h81v65c0 31 -10 79 -41 79c-28 0 -40 -46 -40 -76v-68zM182 224c0 -97 11 -165 79 -165c43 0 75 30 101 63l38 -34c-29 -41 -80 -100 -168 -100c-140 0 -205 113 -205 234c0 139 75 246 203 246c107 0 170 -97 170 -247zM149 632c29 0 53 -24 53 -53
c0 -30 -24 -52 -53 -52c-30 0 -54 22 -54 52c0 29 24 53 54 53zM299 632c29 0 53 -24 53 -53c0 -30 -24 -52 -53 -52c-30 0 -53 22 -53 52c0 29 23 53 53 53z" />
    <glyph glyph-name="igrave" unicode="&#xec;" horiz-adv-x="278" 
d="M216 50h36v-50h-215v50h36v353h-39v53l182 7v-413zM228 527h-50l-119 86c-18 13 -39 31 -39 46c0 20 14 37 34 37c40 0 107 -103 174 -169z" />
    <glyph glyph-name="iacute" unicode="&#xed;" horiz-adv-x="278" 
d="M216 50h36v-50h-215v50h36v353h-39v53l182 7v-413zM89 527h-48l68 77c22 24 73 92 104 92c22 0 33 -19 33 -35c0 -23 -20 -35 -60 -63z" />
    <glyph glyph-name="icircumflex" unicode="&#xee;" horiz-adv-x="278" 
d="M216 50h36v-50h-215v50h36v353h-39v53l182 7v-413zM106 694h67l111 -167h-38l-107 109l-106 -109h-38z" />
    <glyph glyph-name="idieresis" unicode="&#xef;" horiz-adv-x="278" 
d="M216 50h36v-50h-215v50h36v353h-39v53l182 7v-413zM65 632c29 0 53 -24 53 -53c0 -30 -24 -52 -53 -52c-30 0 -54 22 -54 52c0 29 24 53 54 53zM215 632c29 0 53 -24 53 -53c0 -30 -24 -52 -53 -52c-30 0 -53 22 -53 52c0 29 23 53 53 53z" />
    <glyph glyph-name="ntilde" unicode="&#xf1;" horiz-adv-x="471" 
d="M195 464l6 -76c31 34 70 80 129 80c74 0 91 -56 92 -113v-305h36v-50h-176v331c0 19 -9 40 -28 40c-25 0 -41 -21 -53 -35v-286h36v-50h-215v50h36v354h-39v53zM196 634c42 0 79 -46 126 -46c29 0 45 20 54 50h27c-10 -45 -29 -109 -95 -109c-44 0 -103 46 -130 46
c-28 0 -43 -21 -51 -49h-28c12 47 30 108 97 108z" />
    <glyph glyph-name="ograve" unicode="&#xf2;" 
d="M230 34c38 0 45 58 45 196s-7 192 -45 192s-45 -54 -45 -192s7 -196 45 -196zM230 -12c-126 0 -203 116 -203 242s77 238 203 238c120 0 203 -118 203 -238c0 -122 -81 -242 -203 -242zM335 527h-50l-119 86c-18 13 -39 31 -39 46c0 20 14 37 34 37
c40 0 107 -103 174 -169z" />
    <glyph glyph-name="oacute" unicode="&#xf3;" 
d="M230 34c38 0 45 58 45 196s-7 192 -45 192s-45 -54 -45 -192s7 -196 45 -196zM230 -12c-126 0 -203 116 -203 242s77 238 203 238c120 0 203 -118 203 -238c0 -122 -81 -242 -203 -242zM176 527h-48l68 77c22 24 73 92 104 92c22 0 33 -19 33 -35c0 -23 -20 -35 -60 -63z
" />
    <glyph glyph-name="ocircumflex" unicode="&#xf4;" 
d="M230 34c38 0 45 58 45 196s-7 192 -45 192s-45 -54 -45 -192s7 -196 45 -196zM230 -12c-126 0 -203 116 -203 242s77 238 203 238c120 0 203 -118 203 -238c0 -122 -81 -242 -203 -242zM197 687h67l111 -167h-38l-107 109l-106 -109h-38z" />
    <glyph glyph-name="otilde" unicode="&#xf5;" 
d="M230 34c38 0 45 58 45 196s-7 192 -45 192s-45 -54 -45 -192s7 -196 45 -196zM230 -12c-126 0 -203 116 -203 242s77 238 203 238c120 0 203 -118 203 -238c0 -122 -81 -242 -203 -242zM176 628c42 0 79 -46 126 -46c29 0 45 20 54 50h27c-10 -45 -29 -109 -95 -109
c-44 0 -103 46 -130 46c-28 0 -43 -21 -51 -49h-28c12 47 30 108 97 108z" />
    <glyph glyph-name="odieresis" unicode="&#xf6;" 
d="M230 34c38 0 45 58 45 196s-7 192 -45 192s-45 -54 -45 -192s7 -196 45 -196zM230 -12c-126 0 -203 116 -203 242s77 238 203 238c120 0 203 -118 203 -238c0 -122 -81 -242 -203 -242zM158 625c29 0 53 -24 53 -53c0 -30 -24 -52 -53 -52c-30 0 -54 22 -54 52
c0 29 24 53 54 53zM308 625c29 0 53 -24 53 -53c0 -30 -24 -52 -53 -52c-30 0 -53 22 -53 52c0 29 23 53 53 53z" />
    <glyph glyph-name="oslash" unicode="&#xf8;" horiz-adv-x="457" 
d="M229 34c38 0 45 58 45 196c0 23 -1 43 -1 61l-84 -190c6 -46 17 -67 40 -67zM184 212l79 178c-7 22 -18 32 -34 32c-38 0 -45 -54 -45 -192v-18zM336 432c60 -44 96 -122 96 -202c0 -122 -81 -242 -203 -242c-30 0 -58 6 -82 18l-14 -32h-54l27 61
c-51 45 -80 118 -80 195c0 126 77 238 203 238c22 0 43 -4 63 -12l16 36h54z" />
    <glyph glyph-name="ugrave" unicode="&#xf9;" horiz-adv-x="471" 
d="M276 409h-37v50l180 3v-412h39v-50h-179v78c-30 -35 -73 -84 -132 -84c-74 0 -91 56 -92 113v302h-40v50l180 3v-331c0 -19 9 -40 28 -40c25 0 41 21 53 35v283zM338 526h-50l-119 86c-18 13 -39 31 -39 46c0 20 14 37 34 37c40 0 107 -103 174 -169z" />
    <glyph glyph-name="uacute" unicode="&#xfa;" horiz-adv-x="471" 
d="M276 409h-37v50l180 3v-412h39v-50h-179v78c-30 -35 -73 -84 -132 -84c-74 0 -91 56 -92 113v302h-40v50l180 3v-331c0 -19 9 -40 28 -40c25 0 41 21 53 35v283zM185 527h-48l68 77c22 24 73 92 104 92c22 0 33 -19 33 -35c0 -23 -20 -35 -60 -63z" />
    <glyph glyph-name="ucircumflex" unicode="&#xfb;" horiz-adv-x="471" 
d="M276 409h-37v50l180 3v-412h39v-50h-179v78c-30 -35 -73 -84 -132 -84c-74 0 -91 56 -92 113v302h-40v50l180 3v-331c0 -19 9 -40 28 -40c25 0 41 21 53 35v283zM211 694h67l111 -167h-38l-107 109l-106 -109h-38z" />
    <glyph glyph-name="udieresis" unicode="&#xfc;" horiz-adv-x="471" 
d="M276 409h-37v50l180 3v-412h39v-50h-179v78c-30 -35 -73 -84 -132 -84c-74 0 -91 56 -92 113v302h-40v50l180 3v-331c0 -19 9 -40 28 -40c25 0 41 21 53 35v283zM170 632c29 0 53 -24 53 -53c0 -30 -24 -52 -53 -52c-30 0 -54 22 -54 52c0 29 24 53 54 53zM320 632
c29 0 53 -24 53 -53c0 -30 -24 -52 -53 -52c-30 0 -53 22 -53 52c0 29 23 53 53 53z" />
    <glyph glyph-name="yacute" unicode="&#xfd;" horiz-adv-x="428" 
d="M5 418v50h218v-50h-39l74 -200l73 200h-43v50h133v-50h-31l-171 -452c-20 -53 -70 -126 -144 -126c-40 0 -75 34 -75 74c0 41 25 78 66 78c31 0 57 -28 69 -56c22 17 43 57 52 90l-150 392h-32zM197 520h-48l68 77c22 24 73 92 104 92c22 0 33 -19 33 -35
c0 -23 -20 -35 -60 -63z" />
    <glyph glyph-name="ydieresis" unicode="&#xff;" horiz-adv-x="426" 
d="M4 418v50h218v-50h-39l74 -200l73 200h-43v50h133v-50h-31l-171 -452c-20 -53 -70 -126 -144 -126c-40 0 -75 34 -75 74c0 41 25 78 66 78c31 0 57 -28 69 -56c22 17 43 57 52 90l-150 392h-32zM146 625c29 0 53 -24 53 -53c0 -30 -24 -52 -53 -52c-30 0 -54 22 -54 52
c0 29 24 53 54 53zM296 625c29 0 53 -24 53 -53c0 -30 -24 -52 -53 -52c-30 0 -53 22 -53 52c0 29 23 53 53 53z" />
    <glyph glyph-name="dotlessi" unicode="&#x131;" horiz-adv-x="263" 
d="M201 50h36v-50h-215v50h36v353h-39v53l182 7v-413z" />
    <glyph glyph-name="OE" unicode="&#x152;" horiz-adv-x="848" 
d="M295 593c-60 0 -66 -57 -66 -279s6 -279 66 -279s66 57 66 279s-6 279 -66 279zM813 225v-225h-425c-28 -12 -59 -19 -93 -19c-166 0 -264 155 -264 333s99 333 264 333c26 0 50 -4 73 -11h436l5 -216h-43c-8 75 -58 156 -185 156h-35v-221c41 0 94 41 99 102h46v-271
h-46c0 65 -48 112 -99 113v-239h63c100 0 164 127 166 165h38z" />
    <glyph glyph-name="oe" unicode="&#x153;" horiz-adv-x="686" 
d="M234 -12c-126 0 -203 116 -203 242s77 238 203 238c48 0 89 -18 122 -48c33 31 77 48 129 48c107 0 170 -97 170 -247l-218 3c0 -97 11 -165 79 -165c43 0 75 30 101 63l38 -34c-29 -41 -80 -100 -168 -100c-56 0 -99 18 -132 47c-33 -29 -74 -47 -121 -47zM234 34
c38 0 45 58 45 196s-7 192 -45 192s-45 -54 -45 -192s7 -196 45 -196zM437 278h81v65c0 31 -10 79 -41 79c-28 0 -40 -46 -40 -76v-68z" />
    <glyph glyph-name="circumflex" unicode="&#x2c6;" horiz-adv-x="325" 
d="M129 687h67l111 -167h-38l-107 109l-106 -109h-38z" />
    <glyph glyph-name="tilde" unicode="&#x2dc;" horiz-adv-x="360" 
d="M125 628c42 0 79 -46 126 -46c29 0 45 20 54 50h27c-10 -45 -29 -109 -95 -109c-44 0 -103 46 -130 46c-28 0 -43 -21 -51 -49h-28c12 47 30 108 97 108z" />
    </font>
</defs>
</svg>
